<svg version="1" xmlns="http://www.w3.org/2000/svg" width="548" height="548" viewBox="0 0 411.000000 411.000000"><path d="M30.3 92.2c.8 1.8 2.6 6.2 4.1 9.8 1.5 3.6 3.1 7.4 3.6 8.5 2 4.4 65.7 153.7 67.1 157.2.5 1.3 1.7 4.2 2.8 6.6 1 2.3 4 9.1 6.6 15.2 2.5 6 5 11.9 5.5 13 .6 1.1 2.5 5.6 4.3 10l3.4 8h52.7l3.6-8.1c4.2-9.7 5.9-13.7 14-32.7 3.4-8.1 6.5-14.7 6.8-14.7.4 0 6.1 12.6 12.6 28l11.9 28h52.4l8.8-20.7c4.8-11.5 9.9-23.3 11.2-26.3l2.4-5.5 5.5 13c3.1 7.2 6.3 14.8 7.3 17 1 2.2 3.5 8.2 5.6 13.2l3.9 9.3h25.8c14.2 0 25.8-.2 25.8-.5 0-.4-21.5-50.9-43.1-101.4l-4.9-11.5 15.1-35.5c8.3-19.6 15.7-37 16.5-38.6.8-1.7 5.4-12.3 10.3-23.8l8.9-20.7-26.1.2-26.2.3-6.3 15c-3.4 8.2-7.3 17.2-8.6 20-1.3 2.7-3.8 8.7-5.6 13.2-1.9 4.6-3.6 8.3-3.9 8.3-.4 0-6-12.9-12.6-28.5l-12-28.5h-52.1l-2.8 6.7c-1.5 3.8-3.4 8.1-4.1 9.8-.7 1.6-3.4 7.9-6 14-2.5 6-5.5 12.8-6.6 15.2-1 2.3-1.9 4.7-1.9 5.2 0 .6-.4 1.1-.9 1.1-.7 0-2.4-3.6-7.3-15-.5-1.4-4.3-10.2-8.3-19.5l-7.2-17-26.1-.3-26.1-.2 2 4.7c1.2 2.7 6.6 15.4 12.1 28.3s10.8 25.3 11.8 27.5c1.5 3.4 4.9 11.4 7.3 17.5.3.8 3.9 9.1 8 18.5l7.4 17-1.9 4.9c-1 2.7-2.7 6.8-3.7 9-1 2.3-5.6 13-10.2 23.8-4.6 10.9-8.7 19.4-9.1 19-.6-.7-12.8-29-39.2-91.2-6.4-15.1-12.5-29.3-13.5-31.5-1-2.2-3.5-8.1-5.6-13-2-5-4.5-10.8-5.5-13-1-2.2-3.5-7.9-5.5-12.8L80.8 89H29l1.3 3.2zm237.6 91.4l10.2 24.1-9.1 21.4c-5 11.8-10.1 23.6-11.4 26.4-2.3 4.9-2.4 4.9-3.4 2.5-1.8-4.4-19.3-45.4-21.3-49.7-2.4-5.3-2.4-5.2.4-11.5 1.3-2.9 6.4-14.6 11.2-26l8.8-20.7 2.2 4.7c1.2 2.6 6.7 15.5 12.4 28.8z"/></svg>